<svg width="18" height="17" viewBox="0 0 18 17" fill="none" xmlns="http://www.w3.org/2000/svg">
<path d="M9.08317 1.4974H5.1665C3.76637 1.4974 3.06631 1.4974 2.53153 1.76988C2.06112 2.00956 1.67867 2.39201 1.43899 2.86242C1.1665 3.3972 1.1665 4.09726 1.1665 5.4974V12.4974C1.1665 13.8975 1.1665 14.5976 1.43899 15.1324C1.67867 15.6028 2.06112 15.9852 2.53153 16.2249C3.06631 16.4974 3.76637 16.4974 5.1665 16.4974H12.8332C13.6081 16.4974 13.9956 16.4974 14.3136 16.4122C15.1763 16.181 15.8502 15.5072 16.0813 14.6444C16.1665 14.3265 16.1665 13.939 16.1665 13.1641M14.4998 5.66406V0.664062M11.9998 3.16406H16.9998M7.4165 6.08073C7.4165 7.0012 6.67031 7.7474 5.74984 7.7474C4.82936 7.7474 4.08317 7.0012 4.08317 6.08073C4.08317 5.16025 4.82936 4.41406 5.74984 4.41406C6.67031 4.41406 7.4165 5.16025 7.4165 6.08073ZM11.1582 8.92918L4.10913 15.3374C3.71264 15.6979 3.5144 15.8781 3.49686 16.0342C3.48166 16.1695 3.53355 16.3038 3.63582 16.3937C3.75382 16.4974 4.02174 16.4974 4.55757 16.4974H12.3798C13.5791 16.4974 14.1788 16.4974 14.6498 16.2959C15.241 16.043 15.7121 15.5719 15.965 14.9807C16.1665 14.5097 16.1665 13.91 16.1665 12.7107C16.1665 12.3072 16.1665 12.1054 16.1224 11.9175C16.067 11.6814 15.9606 11.4602 15.8109 11.2694C15.6917 11.1176 15.5342 10.9915 15.2191 10.7394L12.888 8.87461C12.5727 8.62232 12.415 8.49617 12.2413 8.45165C12.0883 8.41242 11.9272 8.4175 11.7769 8.4663C11.6065 8.52168 11.457 8.65752 11.1582 8.92918Z" stroke="white" stroke-linecap="round" stroke-linejoin="round"/>
<path d="M9.08317 1.4974H5.1665C3.76637 1.4974 3.06631 1.4974 2.53153 1.76988C2.06112 2.00956 1.67867 2.39201 1.43899 2.86242C1.1665 3.3972 1.1665 4.09726 1.1665 5.4974V12.4974C1.1665 13.8975 1.1665 14.5976 1.43899 15.1324C1.67867 15.6028 2.06112 15.9852 2.53153 16.2249C3.06631 16.4974 3.76637 16.4974 5.1665 16.4974H12.8332C13.6081 16.4974 13.9956 16.4974 14.3136 16.4122C15.1763 16.181 15.8502 15.5072 16.0813 14.6444C16.1665 14.3265 16.1665 13.939 16.1665 13.1641M14.4998 5.66406V0.664062M11.9998 3.16406H16.9998M7.4165 6.08073C7.4165 7.0012 6.67031 7.7474 5.74984 7.7474C4.82936 7.7474 4.08317 7.0012 4.08317 6.08073C4.08317 5.16025 4.82936 4.41406 5.74984 4.41406C6.67031 4.41406 7.4165 5.16025 7.4165 6.08073ZM11.1582 8.92918L4.10913 15.3374C3.71264 15.6979 3.5144 15.8781 3.49686 16.0342C3.48166 16.1695 3.53355 16.3038 3.63582 16.3937C3.75382 16.4974 4.02174 16.4974 4.55757 16.4974H12.3798C13.5791 16.4974 14.1788 16.4974 14.6498 16.2959C15.241 16.043 15.7121 15.5719 15.965 14.9807C16.1665 14.5097 16.1665 13.91 16.1665 12.7107C16.1665 12.3072 16.1665 12.1054 16.1224 11.9175C16.067 11.6814 15.9606 11.4602 15.8109 11.2694C15.6917 11.1176 15.5342 10.9915 15.2191 10.7394L12.888 8.87461C12.5727 8.62232 12.415 8.49617 12.2413 8.45165C12.0883 8.41242 11.9272 8.4175 11.7769 8.4663C11.6065 8.52168 11.457 8.65752 11.1582 8.92918Z" stroke="black" stroke-opacity="0.6" stroke-linecap="round" stroke-linejoin="round"/>
</svg>
