<svg width="21" height="20" viewBox="0 0 21 20" fill="none" xmlns="http://www.w3.org/2000/svg">
<mask id="mask0_667_328" style="mask-type:alpha" maskUnits="userSpaceOnUse" x="0" y="0" width="21" height="20">
<rect x="0.166504" width="20" height="20" fill="#D9D9D9"/>
</mask>
<g mask="url(#mask0_667_328)">
<path d="M5.66213 11.5C5.24838 11.5 4.89567 11.3527 4.604 11.0581C4.31234 10.7635 4.1665 10.4094 4.1665 9.99563C4.1665 9.58188 4.3138 9.22917 4.60838 8.9375C4.90296 8.64583 5.25713 8.5 5.67088 8.5C6.08463 8.5 6.43734 8.64729 6.729 8.94188C7.02067 9.23646 7.1665 9.59062 7.1665 10.0044C7.1665 10.4181 7.01921 10.7708 6.72463 11.0625C6.43005 11.3542 6.07588 11.5 5.66213 11.5ZM10.1621 11.5C9.74838 11.5 9.39567 11.3527 9.104 11.0581C8.81234 10.7635 8.6665 10.4094 8.6665 9.99563C8.6665 9.58188 8.8138 9.22917 9.10838 8.9375C9.40296 8.64583 9.75713 8.5 10.1709 8.5C10.5846 8.5 10.9373 8.64729 11.229 8.94188C11.5207 9.23646 11.6665 9.59062 11.6665 10.0044C11.6665 10.4181 11.5192 10.7708 11.2246 11.0625C10.93 11.3542 10.5759 11.5 10.1621 11.5ZM14.6621 11.5C14.2484 11.5 13.8957 11.3527 13.604 11.0581C13.3123 10.7635 13.1665 10.4094 13.1665 9.99563C13.1665 9.58188 13.3138 9.22917 13.6084 8.9375C13.903 8.64583 14.2571 8.5 14.6709 8.5C15.0846 8.5 15.4373 8.64729 15.729 8.94188C16.0207 9.23646 16.1665 9.59062 16.1665 10.0044C16.1665 10.4181 16.0192 10.7708 15.7246 11.0625C15.43 11.3542 15.0759 11.5 14.6621 11.5Z" fill="white"/>
<path d="M5.66213 11.5C5.24838 11.5 4.89567 11.3527 4.604 11.0581C4.31234 10.7635 4.1665 10.4094 4.1665 9.99563C4.1665 9.58188 4.3138 9.22917 4.60838 8.9375C4.90296 8.64583 5.25713 8.5 5.67088 8.5C6.08463 8.5 6.43734 8.64729 6.729 8.94188C7.02067 9.23646 7.1665 9.59062 7.1665 10.0044C7.1665 10.4181 7.01921 10.7708 6.72463 11.0625C6.43005 11.3542 6.07588 11.5 5.66213 11.5ZM10.1621 11.5C9.74838 11.5 9.39567 11.3527 9.104 11.0581C8.81234 10.7635 8.6665 10.4094 8.6665 9.99563C8.6665 9.58188 8.8138 9.22917 9.10838 8.9375C9.40296 8.64583 9.75713 8.5 10.1709 8.5C10.5846 8.5 10.9373 8.64729 11.229 8.94188C11.5207 9.23646 11.6665 9.59062 11.6665 10.0044C11.6665 10.4181 11.5192 10.7708 11.2246 11.0625C10.93 11.3542 10.5759 11.5 10.1621 11.5ZM14.6621 11.5C14.2484 11.5 13.8957 11.3527 13.604 11.0581C13.3123 10.7635 13.1665 10.4094 13.1665 9.99563C13.1665 9.58188 13.3138 9.22917 13.6084 8.9375C13.903 8.64583 14.2571 8.5 14.6709 8.5C15.0846 8.5 15.4373 8.64729 15.729 8.94188C16.0207 9.23646 16.1665 9.59062 16.1665 10.0044C16.1665 10.4181 16.0192 10.7708 15.7246 11.0625C15.43 11.3542 15.0759 11.5 14.6621 11.5Z" fill="black" fill-opacity="0.6"/>
</g>
</svg>
